<mxfile host="app.diagrams.net" agent="Mozilla/5.0 (Macintosh; Intel Mac OS X 10_15_7) AppleWebKit/537.36 (KHTML, like Gecko) Chrome/131.0.0.0 Safari/537.36" version="25.0.3">
  <diagram name="Page-1" id="wIhcmMLvXpj13WApDI-I">
    <mxGraphModel dx="856" dy="543" grid="0" gridSize="10" guides="1" tooltips="1" connect="1" arrows="1" fold="1" page="1" pageScale="1" pageWidth="827" pageHeight="1169" background="none" math="0" shadow="0">
      <root>
        <mxCell id="0" />
        <mxCell id="1" parent="0" />
        <mxCell id="8r5zYFbW3iiNV7UboRzr-22" style="edgeStyle=orthogonalEdgeStyle;rounded=0;orthogonalLoop=1;jettySize=auto;html=1;entryX=0;entryY=0.5;entryDx=0;entryDy=0;curved=1;" edge="1" parent="1" source="uX6c3fHJnSyMDa_VXGZ7-1" target="8r5zYFbW3iiNV7UboRzr-12">
          <mxGeometry relative="1" as="geometry" />
        </mxCell>
        <mxCell id="8r5zYFbW3iiNV7UboRzr-24" value="User Data&lt;br&gt;(username, active users)" style="edgeLabel;html=1;align=center;verticalAlign=middle;resizable=0;points=[];" vertex="1" connectable="0" parent="8r5zYFbW3iiNV7UboRzr-22">
          <mxGeometry x="-0.1085" y="1" relative="1" as="geometry">
            <mxPoint y="-16" as="offset" />
          </mxGeometry>
        </mxCell>
        <mxCell id="8r5zYFbW3iiNV7UboRzr-41" style="edgeStyle=orthogonalEdgeStyle;rounded=0;orthogonalLoop=1;jettySize=auto;html=1;entryX=0.5;entryY=1;entryDx=0;entryDy=0;curved=1;" edge="1" parent="1" source="uX6c3fHJnSyMDa_VXGZ7-1" target="8r5zYFbW3iiNV7UboRzr-12">
          <mxGeometry relative="1" as="geometry">
            <Array as="points">
              <mxPoint x="495" y="370" />
            </Array>
          </mxGeometry>
        </mxCell>
        <mxCell id="8r5zYFbW3iiNV7UboRzr-42" value="User Funds" style="edgeLabel;html=1;align=center;verticalAlign=middle;resizable=0;points=[];" vertex="1" connectable="0" parent="8r5zYFbW3iiNV7UboRzr-41">
          <mxGeometry x="-0.1231" y="16" relative="1" as="geometry">
            <mxPoint as="offset" />
          </mxGeometry>
        </mxCell>
        <mxCell id="uX6c3fHJnSyMDa_VXGZ7-1" value="ChipIn" style="ellipse;whiteSpace=wrap;html=1;aspect=fixed;" parent="1" vertex="1">
          <mxGeometry x="220" y="290" width="130" height="130" as="geometry" />
        </mxCell>
        <mxCell id="8r5zYFbW3iiNV7UboRzr-4" style="edgeStyle=orthogonalEdgeStyle;rounded=0;orthogonalLoop=1;jettySize=auto;html=1;entryX=0;entryY=0.5;entryDx=0;entryDy=0;curved=1;" edge="1" parent="1" source="8r5zYFbW3iiNV7UboRzr-3" target="uX6c3fHJnSyMDa_VXGZ7-1">
          <mxGeometry relative="1" as="geometry" />
        </mxCell>
        <mxCell id="8r5zYFbW3iiNV7UboRzr-6" value="User Data&lt;br&gt;(username, nickname, email)" style="edgeLabel;html=1;align=center;verticalAlign=middle;resizable=0;points=[];" vertex="1" connectable="0" parent="8r5zYFbW3iiNV7UboRzr-4">
          <mxGeometry x="-0.1106" y="-3" relative="1" as="geometry">
            <mxPoint y="11" as="offset" />
          </mxGeometry>
        </mxCell>
        <mxCell id="8r5zYFbW3iiNV7UboRzr-3" value="User" style="whiteSpace=wrap;html=1;aspect=fixed;" vertex="1" parent="1">
          <mxGeometry x="30" y="200" width="80" height="80" as="geometry" />
        </mxCell>
        <mxCell id="8r5zYFbW3iiNV7UboRzr-5" value="Bank" style="whiteSpace=wrap;html=1;aspect=fixed;" vertex="1" parent="1">
          <mxGeometry x="30" y="460" width="80" height="80" as="geometry" />
        </mxCell>
        <mxCell id="8r5zYFbW3iiNV7UboRzr-8" style="edgeStyle=orthogonalEdgeStyle;rounded=0;orthogonalLoop=1;jettySize=auto;html=1;entryX=0.006;entryY=0.627;entryDx=0;entryDy=0;entryPerimeter=0;curved=1;" edge="1" parent="1" source="8r5zYFbW3iiNV7UboRzr-5" target="uX6c3fHJnSyMDa_VXGZ7-1">
          <mxGeometry relative="1" as="geometry" />
        </mxCell>
        <mxCell id="8r5zYFbW3iiNV7UboRzr-9" value="Transaction Details&lt;br&gt;(card number, balance)" style="edgeLabel;html=1;align=center;verticalAlign=middle;resizable=0;points=[];" vertex="1" connectable="0" parent="8r5zYFbW3iiNV7UboRzr-8">
          <mxGeometry x="-0.1167" y="-2" relative="1" as="geometry">
            <mxPoint y="-20" as="offset" />
          </mxGeometry>
        </mxCell>
        <mxCell id="8r5zYFbW3iiNV7UboRzr-33" style="edgeStyle=orthogonalEdgeStyle;rounded=0;orthogonalLoop=1;jettySize=auto;html=1;exitX=1;exitY=0.5;exitDx=0;exitDy=0;entryX=0.5;entryY=0;entryDx=0;entryDy=0;curved=1;" edge="1" parent="1" source="8r5zYFbW3iiNV7UboRzr-12" target="8r5zYFbW3iiNV7UboRzr-32">
          <mxGeometry relative="1" as="geometry" />
        </mxCell>
        <mxCell id="8r5zYFbW3iiNV7UboRzr-34" value="User Funds" style="edgeLabel;html=1;align=center;verticalAlign=middle;resizable=0;points=[];" vertex="1" connectable="0" parent="8r5zYFbW3iiNV7UboRzr-33">
          <mxGeometry x="0.2669" y="-9" relative="1" as="geometry">
            <mxPoint as="offset" />
          </mxGeometry>
        </mxCell>
        <mxCell id="CdYMKEtfltc4_eSpxXZB-9" style="edgeStyle=orthogonalEdgeStyle;rounded=0;orthogonalLoop=1;jettySize=auto;html=1;exitX=1;exitY=0;exitDx=0;exitDy=0;entryX=0;entryY=0.5;entryDx=0;entryDy=0;curved=1;" edge="1" parent="1" source="8r5zYFbW3iiNV7UboRzr-12" target="CdYMKEtfltc4_eSpxXZB-15">
          <mxGeometry relative="1" as="geometry">
            <mxPoint x="589.9999999999998" y="149.9999999999999" as="targetPoint" />
          </mxGeometry>
        </mxCell>
        <mxCell id="CdYMKEtfltc4_eSpxXZB-13" value="User Data" style="edgeLabel;html=1;align=center;verticalAlign=middle;resizable=0;points=[];" vertex="1" connectable="0" parent="CdYMKEtfltc4_eSpxXZB-9">
          <mxGeometry x="-0.062" relative="1" as="geometry">
            <mxPoint x="-11" as="offset" />
          </mxGeometry>
        </mxCell>
        <mxCell id="8r5zYFbW3iiNV7UboRzr-12" value="Groups" style="ellipse;whiteSpace=wrap;html=1;aspect=fixed;" vertex="1" parent="1">
          <mxGeometry x="450" y="190" width="90" height="90" as="geometry" />
        </mxCell>
        <mxCell id="CdYMKEtfltc4_eSpxXZB-11" style="edgeStyle=orthogonalEdgeStyle;rounded=0;orthogonalLoop=1;jettySize=auto;html=1;exitX=0.75;exitY=0;exitDx=0;exitDy=0;entryX=1;entryY=0.5;entryDx=0;entryDy=0;curved=1;" edge="1" parent="1" source="8r5zYFbW3iiNV7UboRzr-32" target="CdYMKEtfltc4_eSpxXZB-15">
          <mxGeometry relative="1" as="geometry">
            <mxPoint x="670" y="149.9999999999999" as="targetPoint" />
          </mxGeometry>
        </mxCell>
        <mxCell id="CdYMKEtfltc4_eSpxXZB-12" value="Payment + Budgeting" style="edgeLabel;html=1;align=center;verticalAlign=middle;resizable=0;points=[];" vertex="1" connectable="0" parent="CdYMKEtfltc4_eSpxXZB-11">
          <mxGeometry x="0.1335" y="10" relative="1" as="geometry">
            <mxPoint y="-14" as="offset" />
          </mxGeometry>
        </mxCell>
        <mxCell id="8r5zYFbW3iiNV7UboRzr-32" value="Group funds" style="rounded=0;whiteSpace=wrap;html=1;" vertex="1" parent="1">
          <mxGeometry x="530" y="300" width="120" height="60" as="geometry" />
        </mxCell>
        <mxCell id="CdYMKEtfltc4_eSpxXZB-15" value="Events" style="ellipse;whiteSpace=wrap;html=1;aspect=fixed;" vertex="1" parent="1">
          <mxGeometry x="590" y="120" width="80" height="80" as="geometry" />
        </mxCell>
      </root>
    </mxGraphModel>
  </diagram>
</mxfile>
